<svg width="236" height="33" viewBox="0 0 236 33" fill="none" xmlns="http://www.w3.org/2000/svg">
<path d="M33.3226 15.0071C33.0924 15.4713 32.8255 15.9161 32.5245 16.3371C31.9441 17.1378 31.2673 17.863 30.5102 18.4962C30.9481 19.1399 31.3184 19.8278 31.6151 20.5487C31.9476 21.3378 32.1167 22.1871 32.1119 23.0444C32.1119 23.1922 32.1119 23.3372 32.0901 23.4823C32.0763 23.6284 32.0546 23.7737 32.025 23.9174L31.9381 24.4428C31.7359 25.5348 31.3004 26.5694 30.6622 27.4749C29.9689 28.4899 29.1474 29.4098 28.219 30.2115C27.289 31.0273 26.2466 31.703 25.1243 32.2173C24.1054 32.7047 22.9943 32.9652 21.8667 32.9808H0L4.97599 4.537H26.8318C27.7931 4.53266 28.7416 4.75673 29.6008 5.19105C30.4535 5.61849 31.2231 6.19688 31.873 6.89866C32.525 7.5984 33.0454 8.41154 33.4095 9.29863C33.7781 10.1633 33.9703 11.094 33.9741 12.0352C33.9741 12.2103 33.9741 12.3827 33.9524 12.5579C33.9307 12.733 33.9144 12.9082 33.8873 13.0833L33.8004 13.5622C33.713 14.065 33.552 14.552 33.3226 15.0071ZM11.8143 24.4319H19.3339C20.1483 24.4319 20.6912 24.3498 21.0007 24.191C21.1416 24.1235 21.2645 24.0229 21.3589 23.8977C21.4534 23.7725 21.5167 23.6263 21.5436 23.4713C21.5735 23.4412 21.5871 23.34 21.5871 23.1648C21.5953 23.037 21.5588 22.9102 21.4839 22.8067C21.409 22.7032 21.3005 22.6295 21.1772 22.5983C20.6728 22.4878 20.1563 22.4437 19.6406 22.467H12.1183L11.8143 24.4319ZM13.4159 15.0509H20.9464C21.7825 15.0509 22.3526 14.9779 22.6567 14.832C22.798 14.771 22.9219 14.6751 23.0168 14.5532C23.1117 14.4312 23.1746 14.2871 23.1996 14.1341L23.243 13.8605C23.2493 13.7158 23.2053 13.5735 23.1186 13.458C23.0318 13.3426 22.9078 13.2614 22.768 13.2283C22.2869 13.1089 21.7916 13.0582 21.2966 13.0778H13.7634L13.4159 15.0509Z" fill="url(#paint0_linear_2217_254)"/>
<path d="M33.3687 32.9808L38.3366 4.53694H48.5953L45.1314 24.4318H56.2969L55.3847 29.5902C55.2181 30.5416 54.7237 31.4033 53.9886 32.0236C53.2537 32.6437 52.3253 32.9827 51.367 32.9808H33.3687Z" fill="url(#paint1_linear_2217_254)"/>
<path d="M69.8974 20.3297C69.8119 20.8342 69.7684 21.3449 69.7671 21.8567C69.7388 22.5179 69.93 23.1697 70.31 23.7093C70.6719 24.191 71.3858 24.4318 72.4519 24.4318H75.7855C76.3787 24.4513 76.9691 24.3392 77.5148 24.1034C77.9605 23.8978 78.3533 23.5916 78.663 23.2086C78.9731 22.8201 79.2079 22.3764 79.3553 21.9005C79.5179 21.3871 79.6414 20.862 79.7245 20.3297L82.4935 4.53694H92.7929L89.2421 24.9107C89.025 25.9376 88.5898 26.9048 87.9662 27.7458C87.2808 28.7131 86.4732 29.5861 85.5638 30.3428C84.6709 31.0933 83.6898 31.7302 82.6428 32.2392C81.7779 32.6929 80.8237 32.9464 79.8494 32.9808H65.353C64.5337 32.9702 63.7302 32.7529 63.0157 32.3487C62.223 31.9174 61.5066 31.3571 60.8955 30.6903C60.2584 30.0071 59.7326 29.2267 59.3373 28.3779C58.9445 27.5701 58.7376 26.6833 58.7319 25.7837C58.7319 25.6386 58.7319 25.4908 58.7509 25.3458C58.7699 25.2008 58.7889 25.0557 58.8161 24.9107L62.3669 4.53694H72.6663L69.8974 20.3297Z" fill="url(#paint2_linear_2217_254)"/>
<path d="M117.635 22.5107H102.918L102.617 24.4263H118.498L117.586 29.5848C117.419 30.5362 116.924 31.3978 116.19 32.0181C115.455 32.6382 114.526 32.9773 113.568 32.9754H90.8435L95.8222 4.53694H121.962L120.447 13.0887H104.574L104.27 15.0043H118.987L117.635 22.5107Z" fill="url(#paint3_linear_2217_254)"/>
<path d="M130.272 32.9808H120.016L124.992 4.53694H146.923C147.741 4.53877 148.545 4.74868 149.261 5.1472C150.797 5.99119 152.003 7.33766 152.679 8.96471C153.021 9.77159 153.199 10.6401 153.2 11.5179C153.2 11.6903 153.2 11.8655 153.178 12.0406C153.156 12.2158 153.14 12.3882 153.113 12.5633L152.646 15.1083C152.472 16.1324 152.167 17.1295 151.739 18.0747C151.301 19.0409 150.725 19.9371 150.029 20.7347C149.29 21.5799 148.437 22.3168 147.496 22.9239C146.449 23.5918 145.313 24.1059 144.122 24.451H155.632L154.72 29.6121C154.553 30.5631 154.058 31.4241 153.323 32.0436C152.588 32.6634 151.66 33.0019 150.702 33H137.542C136.729 32.8985 135.968 32.54 135.37 31.9765C134.678 31.3459 134.081 30.6177 133.597 29.8146C133.077 28.9725 132.655 28.0726 132.34 27.1328C132.048 26.291 131.845 25.4205 131.735 24.5358L130.272 32.9808ZM133.128 16.5341H139.016C139.771 16.5715 140.526 16.4368 141.223 16.14C141.476 16.0138 141.698 15.8304 141.87 15.604C142.042 15.3777 142.161 15.1144 142.216 14.8347V14.561C142.216 13.5704 141.351 13.0759 139.621 13.0778H133.736L133.128 16.5341Z" fill="url(#paint4_linear_2217_254)"/>
<path d="M156.606 32.9808L161.582 14.6759H171.841L167.647 30.1019C167.186 31.7958 165.557 32.9808 163.692 32.9808H156.606Z" fill="url(#paint5_linear_2217_254)"/>
<path d="M175.428 4.53694H204.203L202.688 13.0887H193.418L190.548 29.5793C190.384 30.5332 189.89 31.3977 189.154 32.0203C188.419 32.6426 187.488 32.9827 186.528 32.9808H179.698L183.159 13.0887H173.899L175.428 4.53694Z" fill="url(#paint6_linear_2217_254)"/>
<path d="M207.224 4.53694H236L234.485 13.0887H225.228L222.359 29.5793C222.194 30.5332 221.7 31.3977 220.965 32.0203C220.229 32.6426 219.299 32.9827 218.338 32.9808H211.508L214.972 13.0887H205.71L207.224 4.53694Z" fill="url(#paint7_linear_2217_254)"/>
<path fill-rule="evenodd" clip-rule="evenodd" d="M166.996 8.26612C166.487 8.74725 165.812 9.01031 165.113 8.99967C164.415 8.989 163.748 8.70543 163.253 8.20901C162.759 7.71256 162.477 7.04227 162.466 6.34003C162.455 5.63783 162.716 4.95882 163.194 4.44684C162.773 3.96116 162.535 3.34224 162.521 2.69806C162.514 2.34154 162.578 1.98719 162.71 1.65635C162.843 1.3255 163.04 1.02502 163.291 0.772996C163.542 0.52097 163.841 0.322615 164.171 0.189879C164.5 0.0571432 164.852 -0.00722768 165.207 0.000643897L168.681 0.0666359C169.385 0.0820557 170.057 0.370327 170.555 0.87134C171.053 1.37236 171.34 2.04743 171.356 2.75579L171.421 6.24786C171.429 6.60439 171.365 6.95882 171.233 7.28979C171.101 7.62077 170.904 7.92145 170.653 8.17373C170.402 8.42601 170.103 8.62467 169.774 8.75776C169.445 8.89081 169.093 8.95554 168.738 8.94803C168.096 8.93354 167.479 8.69212 166.996 8.26612ZM167.045 7.1855L166.572 7.66944C166.39 7.85326 166.173 7.99918 165.935 8.09894C165.697 8.19867 165.442 8.25028 165.184 8.25077C164.925 8.2513 164.67 8.2007 164.431 8.10191C164.193 8.00311 163.976 7.85801 163.793 7.67494C163.61 7.49187 163.465 7.2744 163.366 7.03493C163.267 6.79546 163.215 6.53867 163.215 6.27927C163.214 6.01984 163.265 5.76288 163.363 5.523C163.461 5.28315 163.605 5.0651 163.787 4.88128L164.266 4.39459C163.964 4.22227 163.712 3.97406 163.534 3.67424C163.356 3.37444 163.259 3.03332 163.251 2.68431C163.247 2.42623 163.293 2.16981 163.389 1.93031C163.485 1.69082 163.628 1.47314 163.809 1.29023C163.99 1.10732 164.206 0.96291 164.444 0.865602C164.682 0.768294 164.937 0.720073 165.193 0.723805L168.667 0.789797C169.184 0.802357 169.676 1.01439 170.042 1.38195C170.407 1.74951 170.618 2.2444 170.631 2.76404L170.694 6.25611C170.7 6.51461 170.654 6.7717 170.559 7.0118C170.463 7.25188 170.32 7.46998 170.138 7.6528C169.956 7.83563 169.739 7.97941 169.501 8.07537C169.262 8.17136 169.006 8.21756 168.749 8.21112C168.401 8.2026 168.061 8.10367 167.763 7.92392C167.464 7.7442 167.217 7.4898 167.045 7.1855Z" fill="url(#paint8_linear_2217_254)"/>
<path d="M165.224 3.9299C164.895 3.92083 164.581 3.78516 164.349 3.55086C164.116 3.31653 163.982 3.00145 163.974 2.67055C163.97 2.5103 163.998 2.35087 164.057 2.20202C164.116 2.05316 164.205 1.918 164.318 1.80477C164.431 1.69155 164.566 1.60264 164.714 1.54348C164.862 1.48433 165.021 1.45616 165.18 1.46069L168.654 1.52394C168.983 1.53299 169.296 1.66866 169.528 1.90297C169.761 2.13728 169.895 2.45238 169.903 2.78329L169.969 6.27536C169.973 6.43572 169.945 6.59526 169.886 6.74426C169.827 6.89327 169.738 7.0286 169.625 7.14206C169.512 7.25548 169.378 7.34465 169.229 7.40413C169.081 7.4636 168.922 7.49211 168.763 7.48796C168.433 7.47883 168.119 7.34242 167.886 7.10691C167.654 6.87143 167.52 6.55497 167.513 6.22312V5.70893L167.494 5.68968L166.063 7.14975C165.827 7.35672 165.522 7.46608 165.209 7.45582C164.896 7.44556 164.598 7.31641 164.376 7.0944C164.154 6.8724 164.023 6.574 164.011 6.25928C163.999 5.94458 164.106 5.63689 164.31 5.39822L165.738 3.9409H165.232L165.224 3.9299Z" fill="url(#paint9_linear_2217_254)"/>
<defs>
<linearGradient id="paint0_linear_2217_254" x1="-9.95781" y1="3.14583e-07" x2="54.8305" y2="132.895" gradientUnits="userSpaceOnUse">
<stop offset="0.125302" stop-color="#155DFC"/>
<stop offset="0.195293" stop-color="#2D5DE2"/>
<stop offset="0.230288" stop-color="#395CD6"/>
<stop offset="0.374273" stop-color="#455CC9"/>
<stop offset="0.733203" stop-color="#D35A2F"/>
<stop offset="0.875" stop-color="#E25A20"/>
<stop offset="1" stop-color="#FF5900"/>
</linearGradient>
<linearGradient id="paint1_linear_2217_254" x1="-9.95781" y1="3.14583e-07" x2="54.8305" y2="132.895" gradientUnits="userSpaceOnUse">
<stop offset="0.125302" stop-color="#155DFC"/>
<stop offset="0.195293" stop-color="#2D5DE2"/>
<stop offset="0.230288" stop-color="#395CD6"/>
<stop offset="0.374273" stop-color="#455CC9"/>
<stop offset="0.733203" stop-color="#D35A2F"/>
<stop offset="0.875" stop-color="#E25A20"/>
<stop offset="1" stop-color="#FF5900"/>
</linearGradient>
<linearGradient id="paint2_linear_2217_254" x1="-9.95781" y1="3.14583e-07" x2="54.8305" y2="132.895" gradientUnits="userSpaceOnUse">
<stop offset="0.125302" stop-color="#155DFC"/>
<stop offset="0.195293" stop-color="#2D5DE2"/>
<stop offset="0.230288" stop-color="#395CD6"/>
<stop offset="0.374273" stop-color="#455CC9"/>
<stop offset="0.733203" stop-color="#D35A2F"/>
<stop offset="0.875" stop-color="#E25A20"/>
<stop offset="1" stop-color="#FF5900"/>
</linearGradient>
<linearGradient id="paint3_linear_2217_254" x1="-9.95781" y1="3.14583e-07" x2="54.8305" y2="132.895" gradientUnits="userSpaceOnUse">
<stop offset="0.125302" stop-color="#155DFC"/>
<stop offset="0.195293" stop-color="#2D5DE2"/>
<stop offset="0.230288" stop-color="#395CD6"/>
<stop offset="0.374273" stop-color="#455CC9"/>
<stop offset="0.733203" stop-color="#D35A2F"/>
<stop offset="0.875" stop-color="#E25A20"/>
<stop offset="1" stop-color="#FF5900"/>
</linearGradient>
<linearGradient id="paint4_linear_2217_254" x1="-9.95781" y1="3.14583e-07" x2="54.8305" y2="132.895" gradientUnits="userSpaceOnUse">
<stop offset="0.125302" stop-color="#155DFC"/>
<stop offset="0.195293" stop-color="#2D5DE2"/>
<stop offset="0.230288" stop-color="#395CD6"/>
<stop offset="0.374273" stop-color="#455CC9"/>
<stop offset="0.733203" stop-color="#D35A2F"/>
<stop offset="0.875" stop-color="#E25A20"/>
<stop offset="1" stop-color="#FF5900"/>
</linearGradient>
<linearGradient id="paint5_linear_2217_254" x1="-9.95781" y1="3.14583e-07" x2="54.8305" y2="132.895" gradientUnits="userSpaceOnUse">
<stop offset="0.125302" stop-color="#155DFC"/>
<stop offset="0.195293" stop-color="#2D5DE2"/>
<stop offset="0.230288" stop-color="#395CD6"/>
<stop offset="0.374273" stop-color="#455CC9"/>
<stop offset="0.733203" stop-color="#D35A2F"/>
<stop offset="0.875" stop-color="#E25A20"/>
<stop offset="1" stop-color="#FF5900"/>
</linearGradient>
<linearGradient id="paint6_linear_2217_254" x1="-9.95781" y1="3.14583e-07" x2="54.8305" y2="132.895" gradientUnits="userSpaceOnUse">
<stop offset="0.125302" stop-color="#155DFC"/>
<stop offset="0.195293" stop-color="#2D5DE2"/>
<stop offset="0.230288" stop-color="#395CD6"/>
<stop offset="0.374273" stop-color="#455CC9"/>
<stop offset="0.733203" stop-color="#D35A2F"/>
<stop offset="0.875" stop-color="#E25A20"/>
<stop offset="1" stop-color="#FF5900"/>
</linearGradient>
<linearGradient id="paint7_linear_2217_254" x1="-9.95781" y1="3.14583e-07" x2="54.8305" y2="132.895" gradientUnits="userSpaceOnUse">
<stop offset="0.125302" stop-color="#155DFC"/>
<stop offset="0.195293" stop-color="#2D5DE2"/>
<stop offset="0.230288" stop-color="#395CD6"/>
<stop offset="0.374273" stop-color="#455CC9"/>
<stop offset="0.733203" stop-color="#D35A2F"/>
<stop offset="0.875" stop-color="#E25A20"/>
<stop offset="1" stop-color="#FF5900"/>
</linearGradient>
<linearGradient id="paint8_linear_2217_254" x1="-9.95781" y1="3.14583e-07" x2="54.8305" y2="132.895" gradientUnits="userSpaceOnUse">
<stop offset="0.125302" stop-color="#155DFC"/>
<stop offset="0.195293" stop-color="#2D5DE2"/>
<stop offset="0.230288" stop-color="#395CD6"/>
<stop offset="0.374273" stop-color="#455CC9"/>
<stop offset="0.733203" stop-color="#D35A2F"/>
<stop offset="0.875" stop-color="#E25A20"/>
<stop offset="1" stop-color="#FF5900"/>
</linearGradient>
<linearGradient id="paint9_linear_2217_254" x1="-9.95781" y1="3.14583e-07" x2="54.8305" y2="132.895" gradientUnits="userSpaceOnUse">
<stop offset="0.125302" stop-color="#155DFC"/>
<stop offset="0.195293" stop-color="#2D5DE2"/>
<stop offset="0.230288" stop-color="#395CD6"/>
<stop offset="0.374273" stop-color="#455CC9"/>
<stop offset="0.733203" stop-color="#D35A2F"/>
<stop offset="0.875" stop-color="#E25A20"/>
<stop offset="1" stop-color="#FF5900"/>
</linearGradient>
</defs>
</svg>
