<svg width="237" height="31" viewBox="0 0 237 31" fill="none" xmlns="http://www.w3.org/2000/svg">
<path d="M64.3807 12.2785C64.1846 12.6584 63.9573 13.0223 63.7009 13.3667C63.2066 14.0218 62.6302 14.6152 61.9854 15.1333C62.3583 15.6599 62.6737 16.2227 62.9264 16.8125C63.2096 17.4582 63.3537 18.1531 63.3495 18.8545C63.3495 18.9754 63.3495 19.0941 63.331 19.2128C63.3192 19.3323 63.3007 19.4512 63.2755 19.5688L63.2015 19.9986C63.0293 20.8921 62.6584 21.7386 62.1149 22.4795C61.5244 23.3099 60.8247 24.0626 60.034 24.7185C59.2419 25.386 58.3541 25.9388 57.3982 26.3596C56.5304 26.7584 55.5842 26.9716 54.6237 26.9843H36L40.238 3.71209H58.8525C59.6712 3.70854 60.4791 3.89187 61.2108 4.24722C61.9371 4.59695 62.5925 5.07018 63.146 5.64436C63.7014 6.21687 64.1446 6.88217 64.4547 7.60797C64.7687 8.31543 64.9324 9.07694 64.9356 9.84698C64.9356 9.99027 64.9356 10.1313 64.9171 10.2746C64.8986 10.4179 64.8847 10.5612 64.8616 10.7045L64.7876 11.0963C64.7132 11.5077 64.5761 11.9062 64.3807 12.2785ZM46.0621 19.9897H52.4666C53.1602 19.9897 53.6226 19.9225 53.8862 19.7927C54.0062 19.7374 54.1108 19.6551 54.1913 19.5526C54.2717 19.4502 54.3257 19.3306 54.3486 19.2038C54.374 19.1792 54.3856 19.0963 54.3856 18.953C54.3926 18.8484 54.3615 18.7447 54.2977 18.6601C54.234 18.5754 54.1415 18.515 54.0365 18.4896C53.6069 18.3991 53.167 18.363 52.7278 18.3821H46.3211L46.0621 19.9897ZM47.4263 12.3144H53.84C54.5521 12.3144 55.0376 12.2547 55.2966 12.1352C55.417 12.0854 55.5225 12.0069 55.6033 11.9071C55.6841 11.8073 55.7377 11.6894 55.759 11.5643L55.796 11.3404C55.8013 11.222 55.7638 11.1056 55.69 11.0111C55.6161 10.9167 55.5105 10.8502 55.3914 10.8232C54.9817 10.7255 54.5598 10.684 54.1382 10.7H47.7222L47.4263 12.3144Z" fill="url(#paint0_linear_2240_233)"/>
<path d="M64.42 26.9843L68.6511 3.71204H77.3884L74.4382 19.9896H83.9478L83.1709 24.2102C83.0289 24.9886 82.6079 25.6936 81.9818 26.2011C81.3559 26.7085 80.5652 26.9859 79.749 26.9843H64.42Z" fill="url(#paint1_linear_2240_233)"/>
<path d="M95.5312 16.6334C95.4584 17.0461 95.4214 17.464 95.4203 17.8827C95.3962 18.4237 95.559 18.957 95.8827 19.3986C96.1909 19.7926 96.7989 19.9896 97.7069 19.9896H100.546C101.051 20.0056 101.554 19.9139 102.019 19.721C102.399 19.5527 102.733 19.3022 102.997 18.9888C103.261 18.671 103.461 18.3079 103.587 17.9186C103.725 17.4986 103.83 17.0689 103.901 16.6334L106.259 3.71204H115.031L112.007 20.3815C111.822 21.2217 111.451 22.013 110.92 22.7011C110.337 23.4925 109.649 24.2068 108.874 24.8259C108.114 25.44 107.278 25.9611 106.386 26.3775C105.65 26.7488 104.837 26.9561 104.007 26.9843H91.6608C90.963 26.9756 90.2787 26.7978 89.6701 26.4671C88.995 26.1142 88.3849 25.6558 87.8644 25.1103C87.3218 24.5513 86.8739 23.9127 86.5373 23.2183C86.2027 22.5573 86.0265 21.8318 86.0217 21.0957C86.0217 20.9771 86.0217 20.8561 86.0379 20.7375C86.0541 20.6188 86.0702 20.5001 86.0934 20.3815L89.1176 3.71204H97.8896L95.5312 16.6334Z" fill="url(#paint2_linear_2240_233)"/>
<path d="M136.189 18.4179H123.655L123.398 19.9852H136.924L136.147 24.2057C136.005 24.9841 135.584 25.6891 134.958 26.1966C134.332 26.704 133.541 26.9814 132.725 26.9798H113.371L117.611 3.71204H139.874L138.584 10.709H125.065L124.806 12.2763H137.34L136.189 18.4179Z" fill="url(#paint3_linear_2240_233)"/>
<path d="M146.952 26.9843H138.217L142.455 3.71204H161.134C161.83 3.71354 162.515 3.88528 163.125 4.21134C164.433 4.90188 165.46 6.00354 166.036 7.33476C166.328 7.99493 166.479 8.70555 166.479 9.42376C166.479 9.56482 166.479 9.70811 166.461 9.85141C166.443 9.99471 166.429 10.1358 166.405 10.2791L166.008 12.3613C165.86 13.1992 165.6 14.0151 165.236 14.7884C164.862 15.5789 164.372 16.3122 163.779 16.9647C163.15 17.6563 162.423 18.2592 161.622 18.756C160.73 19.3024 159.762 19.723 158.748 20.0053H168.551L167.774 24.2281C167.632 25.0061 167.21 25.7106 166.584 26.2175C165.959 26.7246 165.168 27.0016 164.352 27H153.143C152.451 26.9169 151.804 26.6236 151.294 26.1626C150.705 25.6466 150.196 25.0508 149.784 24.3938C149.341 23.7048 148.982 22.9685 148.714 22.1996C148.465 21.5109 148.292 20.7986 148.198 20.0747L146.952 26.9843ZM149.384 13.5279H154.399C155.042 13.5585 155.685 13.4483 156.279 13.2054C156.495 13.1022 156.683 12.9521 156.83 12.7669C156.977 12.5817 157.078 12.3664 157.125 12.1374V11.9135C157.125 11.103 156.388 10.6985 154.915 10.7H149.902L149.384 13.5279Z" fill="url(#paint4_linear_2240_233)"/>
<path d="M169.381 26.9843L173.619 12.0075H182.356L178.784 24.6288C178.391 26.0148 177.004 26.9843 175.415 26.9843H169.381Z" fill="url(#paint5_linear_2240_233)"/>
<path d="M185.411 3.71204H209.919L208.629 10.709H200.733L198.289 24.2012C198.149 24.9817 197.728 25.689 197.102 26.1984C196.475 26.7076 195.683 26.9859 194.865 26.9843H189.048L191.996 10.709H184.109L185.411 3.71204Z" fill="url(#paint6_linear_2240_233)"/>
<path d="M212.492 3.71204H237L235.71 10.709H227.826L225.382 24.2012C225.241 24.9817 224.821 25.689 224.194 26.1984C223.568 26.7076 222.776 26.9859 221.958 26.9843H216.14L219.091 10.709H211.202L212.492 3.71204Z" fill="url(#paint7_linear_2240_233)"/>
<path fill-rule="evenodd" clip-rule="evenodd" d="M178.229 6.76319C177.796 7.15684 177.221 7.37207 176.626 7.36337C176.031 7.35464 175.463 7.12263 175.042 6.71646C174.621 6.31027 174.381 5.76186 174.371 5.1873C174.362 4.61277 174.584 4.05722 174.991 3.63832C174.633 3.24095 174.43 2.73456 174.418 2.20751C174.412 1.91581 174.467 1.62588 174.58 1.35519C174.692 1.0845 174.861 0.838654 175.074 0.632451C175.288 0.426248 175.543 0.263958 175.823 0.155356C176.104 0.0467535 176.404 -0.00591356 176.706 0.000526825L179.664 0.0545203C180.265 0.0671365 180.836 0.302995 181.261 0.712915C181.685 1.12284 181.93 1.67517 181.943 2.25474L181.999 5.11189C182.005 5.40359 181.951 5.69358 181.838 5.96438C181.726 6.23518 181.558 6.48118 181.344 6.6876C181.131 6.89401 180.876 7.05655 180.596 7.16544C180.316 7.2743 180.015 7.32726 179.713 7.32112C179.166 7.30926 178.641 7.11174 178.229 6.76319ZM178.271 5.87905L177.868 6.275C177.713 6.42539 177.529 6.54478 177.326 6.6264C177.123 6.708 176.906 6.75023 176.686 6.75063C176.466 6.75106 176.248 6.70967 176.045 6.62883C175.842 6.548 175.657 6.42928 175.502 6.2795C175.346 6.12971 175.222 5.95178 175.138 5.75585C175.053 5.55992 175.01 5.34982 175.009 5.13758C175.009 4.92532 175.052 4.71508 175.135 4.51882C175.219 4.32257 175.342 4.14417 175.497 3.99378L175.905 3.59558C175.647 3.45459 175.433 3.2515 175.281 3.00619C175.13 2.76091 175.047 2.4818 175.04 2.19626C175.036 1.9851 175.076 1.7753 175.158 1.57935C175.239 1.3834 175.361 1.20529 175.515 1.05564C175.67 0.905986 175.853 0.787835 176.056 0.70822C176.259 0.628604 176.476 0.589151 176.694 0.592204L179.653 0.646197C180.093 0.656474 180.512 0.829957 180.824 1.13069C181.135 1.43141 181.315 1.83633 181.325 2.26149L181.379 5.11864C181.384 5.33014 181.345 5.54048 181.264 5.73693C181.183 5.93335 181.061 6.1118 180.906 6.26139C180.751 6.41097 180.566 6.52861 180.363 6.60712C180.159 6.68566 179.942 6.72346 179.723 6.71819C179.426 6.71122 179.137 6.63027 178.883 6.48321C178.628 6.33617 178.418 6.12802 178.271 5.87905Z" fill="url(#paint8_linear_2240_233)"/>
<path d="M176.72 3.21537C176.44 3.20795 176.173 3.09695 175.975 2.90525C175.777 2.71353 175.663 2.45573 175.656 2.18499C175.652 2.05388 175.676 1.92344 175.727 1.80165C175.777 1.67986 175.853 1.56927 175.949 1.47663C176.045 1.38399 176.16 1.31125 176.286 1.26285C176.412 1.21445 176.547 1.1914 176.683 1.19511L179.641 1.24686C179.922 1.25426 180.188 1.36526 180.386 1.55698C180.585 1.74869 180.699 2.00649 180.706 2.27724L180.762 5.13439C180.765 5.26559 180.741 5.39612 180.691 5.51803C180.64 5.63994 180.565 5.75068 180.469 5.8435C180.373 5.9363 180.258 6.00926 180.132 6.05792C180.006 6.10658 179.87 6.12991 179.735 6.12651C179.453 6.11905 179.186 6.00744 178.988 5.81475C178.79 5.62208 178.676 5.36316 178.67 5.09164V4.67094L178.654 4.6552L177.435 5.8498C177.234 6.01914 176.974 6.10861 176.707 6.10022C176.441 6.09182 176.187 5.98615 175.998 5.80451C175.809 5.62287 175.698 5.37873 175.687 5.12123C175.677 4.86374 175.768 4.612 175.942 4.41672L177.158 3.22437H176.727L176.72 3.21537Z" fill="url(#paint9_linear_2240_233)"/>
<path fill-rule="evenodd" clip-rule="evenodd" d="M25.7547 3.90727C25.1216 7.68001 24.061 9.9107 22.262 11.1118L22.8151 12.0682L25.085 16.0057C27.6291 13.3174 28.6097 9.92214 27.1422 6.33701L25.7547 3.90727Z" fill="url(#paint10_linear_2240_233)"/>
<path fill-rule="evenodd" clip-rule="evenodd" d="M3.45414 8.74379L11.2944 8.4006L15.6397 1.50261H10.419C9.57133 1.4898 8.73601 1.70649 8.00129 2.12976C7.26659 2.55303 6.6598 3.16715 6.24509 3.90718L3.45414 8.74379Z" fill="url(#paint11_linear_2240_233)"/>
<path fill-rule="evenodd" clip-rule="evenodd" d="M15.2812 1.50252L11.4571 8.1374H20.5432L20.598 8.2335L22.262 11.1118C24.1301 10.093 25.2946 7.69509 25.7547 3.91853C25.3415 3.17637 24.7355 2.55994 24.0006 2.13459C23.2657 1.70925 22.4297 1.49084 21.5809 1.50252H15.2812Z" fill="url(#paint12_linear_2240_233)"/>
<path fill-rule="evenodd" clip-rule="evenodd" d="M9.18486 12.0566L11.4569 8.1191H3.8155L3.45414 8.74379L0.663395 13.5826C0.22921 14.3119 0 15.1451 0 15.994C0 16.843 0.22921 17.6762 0.663395 18.4055L4.85096 25.6558C4.09971 22.3689 4.78545 19.146 6.9082 15.9872L9.18486 12.0566Z" fill="url(#paint13_linear_2240_233)"/>
<path fill-rule="evenodd" clip-rule="evenodd" d="M6.2453 28.0812C7.15962 24.4206 8.03965 22.4553 9.73799 20.888L9.18483 19.9317L6.91275 15.9942C4.47838 18.9113 3.9275 22.3065 4.85553 25.6629L6.2453 28.0812Z" fill="url(#paint14_linear_2240_233)"/>
<path fill-rule="evenodd" clip-rule="evenodd" d="M11.4569 23.8713L9.73802 20.897C7.28307 21.6063 6.70477 24.3128 6.24532 28.0902C6.65912 28.8314 7.26552 29.4469 8.00029 29.8715C8.73508 30.2959 9.57086 30.5137 10.4192 30.5016H21.5807C22.429 30.5137 23.2648 30.2959 23.9995 29.8715C24.7344 29.4469 25.3408 28.8314 25.7545 28.0902L28.5455 23.2375L31.3364 18.3986C31.7707 17.6693 32 16.8362 32 15.9872C32 15.1382 31.7707 14.3051 31.3364 13.5758L27.1489 6.32541C27.9002 9.6139 27.2145 12.8368 25.0916 15.9941L20.5498 23.8713H11.4569Z" fill="url(#paint15_linear_2240_233)"/>
<path d="M18.9774 10.8853L16.7419 14.6764L10.408 15.7357L12.6435 11.9424L18.9774 10.8853Z" fill="url(#paint16_linear_2240_233)"/>
<path d="M18.8835 20.737L21.119 16.9437L18.9774 10.8853L16.7419 14.6764L18.8835 20.737Z" fill="url(#paint17_linear_2240_233)"/>
<path d="M18.8835 20.737C18.8835 20.737 17.1737 13.9441 18.9726 10.8829L21.1144 16.9412L18.8835 20.737Z" fill="url(#paint18_linear_2240_233)"/>
<path d="M10.4102 15.7355C10.4102 15.7355 17.1737 13.9441 18.9726 10.8829L12.6435 11.9424L10.4102 15.7355Z" fill="url(#paint19_linear_2240_233)"/>
<path d="M16.1041 15.763L14.8514 17.8884L16.0515 21.2837L17.3041 19.1582L16.1041 15.763Z" fill="url(#paint20_linear_2240_233)"/>
<path d="M11.304 18.481L12.5543 16.3555L16.1041 15.763L14.8514 17.8884L11.304 18.481Z" fill="url(#paint21_linear_2240_233)"/>
<path d="M11.304 18.481C11.304 18.481 15.0937 17.4789 16.1041 15.763L12.5543 16.3555L11.304 18.481Z" fill="url(#paint22_linear_2240_233)"/>
<path d="M16.0515 21.2837C16.0515 21.2837 15.0869 17.4789 16.1041 15.763L17.3041 19.1582L16.0515 21.2837Z" fill="url(#paint23_linear_2240_233)"/>
<defs>
<linearGradient id="paint0_linear_2240_233" x1="27.519" y1="2.57386e-07" x2="79.2076" y2="110.368" gradientUnits="userSpaceOnUse">
<stop offset="0.125302" stop-color="#155DFC"/>
<stop offset="0.195293" stop-color="#2D5DE2"/>
<stop offset="0.230288" stop-color="#395CD6"/>
<stop offset="0.299229" stop-color="#455CC9"/>
<stop offset="0.672914" stop-color="#D35A2F"/>
<stop offset="0.875" stop-color="#E25A20"/>
<stop offset="1" stop-color="#FF5900"/>
</linearGradient>
<linearGradient id="paint1_linear_2240_233" x1="27.519" y1="2.57386e-07" x2="79.2076" y2="110.368" gradientUnits="userSpaceOnUse">
<stop offset="0.125302" stop-color="#155DFC"/>
<stop offset="0.195293" stop-color="#2D5DE2"/>
<stop offset="0.230288" stop-color="#395CD6"/>
<stop offset="0.299229" stop-color="#455CC9"/>
<stop offset="0.672914" stop-color="#D35A2F"/>
<stop offset="0.875" stop-color="#E25A20"/>
<stop offset="1" stop-color="#FF5900"/>
</linearGradient>
<linearGradient id="paint2_linear_2240_233" x1="27.519" y1="2.57386e-07" x2="79.2076" y2="110.368" gradientUnits="userSpaceOnUse">
<stop offset="0.125302" stop-color="#155DFC"/>
<stop offset="0.195293" stop-color="#2D5DE2"/>
<stop offset="0.230288" stop-color="#395CD6"/>
<stop offset="0.299229" stop-color="#455CC9"/>
<stop offset="0.672914" stop-color="#D35A2F"/>
<stop offset="0.875" stop-color="#E25A20"/>
<stop offset="1" stop-color="#FF5900"/>
</linearGradient>
<linearGradient id="paint3_linear_2240_233" x1="27.519" y1="2.57386e-07" x2="79.2076" y2="110.368" gradientUnits="userSpaceOnUse">
<stop offset="0.125302" stop-color="#155DFC"/>
<stop offset="0.195293" stop-color="#2D5DE2"/>
<stop offset="0.230288" stop-color="#395CD6"/>
<stop offset="0.299229" stop-color="#455CC9"/>
<stop offset="0.672914" stop-color="#D35A2F"/>
<stop offset="0.875" stop-color="#E25A20"/>
<stop offset="1" stop-color="#FF5900"/>
</linearGradient>
<linearGradient id="paint4_linear_2240_233" x1="27.519" y1="2.57386e-07" x2="79.2076" y2="110.368" gradientUnits="userSpaceOnUse">
<stop offset="0.125302" stop-color="#155DFC"/>
<stop offset="0.195293" stop-color="#2D5DE2"/>
<stop offset="0.230288" stop-color="#395CD6"/>
<stop offset="0.299229" stop-color="#455CC9"/>
<stop offset="0.672914" stop-color="#D35A2F"/>
<stop offset="0.875" stop-color="#E25A20"/>
<stop offset="1" stop-color="#FF5900"/>
</linearGradient>
<linearGradient id="paint5_linear_2240_233" x1="27.519" y1="2.57386e-07" x2="79.2076" y2="110.368" gradientUnits="userSpaceOnUse">
<stop offset="0.125302" stop-color="#155DFC"/>
<stop offset="0.195293" stop-color="#2D5DE2"/>
<stop offset="0.230288" stop-color="#395CD6"/>
<stop offset="0.299229" stop-color="#455CC9"/>
<stop offset="0.672914" stop-color="#D35A2F"/>
<stop offset="0.875" stop-color="#E25A20"/>
<stop offset="1" stop-color="#FF5900"/>
</linearGradient>
<linearGradient id="paint6_linear_2240_233" x1="27.519" y1="2.57386e-07" x2="79.2076" y2="110.368" gradientUnits="userSpaceOnUse">
<stop offset="0.125302" stop-color="#155DFC"/>
<stop offset="0.195293" stop-color="#2D5DE2"/>
<stop offset="0.230288" stop-color="#395CD6"/>
<stop offset="0.299229" stop-color="#455CC9"/>
<stop offset="0.672914" stop-color="#D35A2F"/>
<stop offset="0.875" stop-color="#E25A20"/>
<stop offset="1" stop-color="#FF5900"/>
</linearGradient>
<linearGradient id="paint7_linear_2240_233" x1="27.519" y1="2.57386e-07" x2="79.2076" y2="110.368" gradientUnits="userSpaceOnUse">
<stop offset="0.125302" stop-color="#155DFC"/>
<stop offset="0.195293" stop-color="#2D5DE2"/>
<stop offset="0.230288" stop-color="#395CD6"/>
<stop offset="0.299229" stop-color="#455CC9"/>
<stop offset="0.672914" stop-color="#D35A2F"/>
<stop offset="0.875" stop-color="#E25A20"/>
<stop offset="1" stop-color="#FF5900"/>
</linearGradient>
<linearGradient id="paint8_linear_2240_233" x1="27.519" y1="2.57386e-07" x2="79.2076" y2="110.368" gradientUnits="userSpaceOnUse">
<stop offset="0.125302" stop-color="#155DFC"/>
<stop offset="0.195293" stop-color="#2D5DE2"/>
<stop offset="0.230288" stop-color="#395CD6"/>
<stop offset="0.299229" stop-color="#455CC9"/>
<stop offset="0.672914" stop-color="#D35A2F"/>
<stop offset="0.875" stop-color="#E25A20"/>
<stop offset="1" stop-color="#FF5900"/>
</linearGradient>
<linearGradient id="paint9_linear_2240_233" x1="27.519" y1="2.57386e-07" x2="79.2076" y2="110.368" gradientUnits="userSpaceOnUse">
<stop offset="0.125302" stop-color="#155DFC"/>
<stop offset="0.195293" stop-color="#2D5DE2"/>
<stop offset="0.230288" stop-color="#395CD6"/>
<stop offset="0.299229" stop-color="#455CC9"/>
<stop offset="0.672914" stop-color="#D35A2F"/>
<stop offset="0.875" stop-color="#E25A20"/>
<stop offset="1" stop-color="#FF5900"/>
</linearGradient>
<linearGradient id="paint10_linear_2240_233" x1="-1.35021" y1="1.50208" x2="40.2318" y2="14.6626" gradientUnits="userSpaceOnUse">
<stop offset="0.125302" stop-color="#155DFC"/>
<stop offset="0.195293" stop-color="#2D5DE2"/>
<stop offset="0.230288" stop-color="#395CD6"/>
<stop offset="0.374273" stop-color="#455CC9"/>
<stop offset="0.733203" stop-color="#D35A2F"/>
<stop offset="0.875" stop-color="#E25A20"/>
<stop offset="1" stop-color="#FF5900"/>
</linearGradient>
<linearGradient id="paint11_linear_2240_233" x1="-1.35021" y1="1.50208" x2="40.2318" y2="14.6626" gradientUnits="userSpaceOnUse">
<stop offset="0.125302" stop-color="#155DFC"/>
<stop offset="0.195293" stop-color="#2D5DE2"/>
<stop offset="0.230288" stop-color="#395CD6"/>
<stop offset="0.374273" stop-color="#455CC9"/>
<stop offset="0.733203" stop-color="#D35A2F"/>
<stop offset="0.875" stop-color="#E25A20"/>
<stop offset="1" stop-color="#FF5900"/>
</linearGradient>
<linearGradient id="paint12_linear_2240_233" x1="-1.35021" y1="1.50208" x2="40.2318" y2="14.6626" gradientUnits="userSpaceOnUse">
<stop offset="0.125302" stop-color="#155DFC"/>
<stop offset="0.195293" stop-color="#2D5DE2"/>
<stop offset="0.230288" stop-color="#395CD6"/>
<stop offset="0.374273" stop-color="#455CC9"/>
<stop offset="0.733203" stop-color="#D35A2F"/>
<stop offset="0.875" stop-color="#E25A20"/>
<stop offset="1" stop-color="#FF5900"/>
</linearGradient>
<linearGradient id="paint13_linear_2240_233" x1="-1.35021" y1="1.50208" x2="40.2318" y2="14.6626" gradientUnits="userSpaceOnUse">
<stop offset="0.125302" stop-color="#155DFC"/>
<stop offset="0.195293" stop-color="#2D5DE2"/>
<stop offset="0.230288" stop-color="#395CD6"/>
<stop offset="0.374273" stop-color="#455CC9"/>
<stop offset="0.733203" stop-color="#D35A2F"/>
<stop offset="0.875" stop-color="#E25A20"/>
<stop offset="1" stop-color="#FF5900"/>
</linearGradient>
<linearGradient id="paint14_linear_2240_233" x1="-1.35021" y1="1.50208" x2="40.2318" y2="14.6626" gradientUnits="userSpaceOnUse">
<stop offset="0.125302" stop-color="#155DFC"/>
<stop offset="0.195293" stop-color="#2D5DE2"/>
<stop offset="0.230288" stop-color="#395CD6"/>
<stop offset="0.374273" stop-color="#455CC9"/>
<stop offset="0.733203" stop-color="#D35A2F"/>
<stop offset="0.875" stop-color="#E25A20"/>
<stop offset="1" stop-color="#FF5900"/>
</linearGradient>
<linearGradient id="paint15_linear_2240_233" x1="-1.35021" y1="1.50208" x2="40.2318" y2="14.6626" gradientUnits="userSpaceOnUse">
<stop offset="0.125302" stop-color="#155DFC"/>
<stop offset="0.195293" stop-color="#2D5DE2"/>
<stop offset="0.230288" stop-color="#395CD6"/>
<stop offset="0.374273" stop-color="#455CC9"/>
<stop offset="0.733203" stop-color="#D35A2F"/>
<stop offset="0.875" stop-color="#E25A20"/>
<stop offset="1" stop-color="#FF5900"/>
</linearGradient>
<linearGradient id="paint16_linear_2240_233" x1="-1.35021" y1="1.50208" x2="40.2318" y2="14.6626" gradientUnits="userSpaceOnUse">
<stop offset="0.125302" stop-color="#155DFC"/>
<stop offset="0.195293" stop-color="#2D5DE2"/>
<stop offset="0.230288" stop-color="#395CD6"/>
<stop offset="0.374273" stop-color="#455CC9"/>
<stop offset="0.733203" stop-color="#D35A2F"/>
<stop offset="0.875" stop-color="#E25A20"/>
<stop offset="1" stop-color="#FF5900"/>
</linearGradient>
<linearGradient id="paint17_linear_2240_233" x1="-1.35021" y1="1.50208" x2="40.2318" y2="14.6626" gradientUnits="userSpaceOnUse">
<stop offset="0.125302" stop-color="#155DFC"/>
<stop offset="0.195293" stop-color="#2D5DE2"/>
<stop offset="0.230288" stop-color="#395CD6"/>
<stop offset="0.374273" stop-color="#455CC9"/>
<stop offset="0.733203" stop-color="#D35A2F"/>
<stop offset="0.875" stop-color="#E25A20"/>
<stop offset="1" stop-color="#FF5900"/>
</linearGradient>
<linearGradient id="paint18_linear_2240_233" x1="-1.35021" y1="1.50208" x2="40.2318" y2="14.6626" gradientUnits="userSpaceOnUse">
<stop offset="0.125302" stop-color="#155DFC"/>
<stop offset="0.195293" stop-color="#2D5DE2"/>
<stop offset="0.230288" stop-color="#395CD6"/>
<stop offset="0.374273" stop-color="#455CC9"/>
<stop offset="0.733203" stop-color="#D35A2F"/>
<stop offset="0.875" stop-color="#E25A20"/>
<stop offset="1" stop-color="#FF5900"/>
</linearGradient>
<linearGradient id="paint19_linear_2240_233" x1="-1.35021" y1="1.50208" x2="40.2318" y2="14.6626" gradientUnits="userSpaceOnUse">
<stop offset="0.125302" stop-color="#155DFC"/>
<stop offset="0.195293" stop-color="#2D5DE2"/>
<stop offset="0.230288" stop-color="#395CD6"/>
<stop offset="0.374273" stop-color="#455CC9"/>
<stop offset="0.733203" stop-color="#D35A2F"/>
<stop offset="0.875" stop-color="#E25A20"/>
<stop offset="1" stop-color="#FF5900"/>
</linearGradient>
<linearGradient id="paint20_linear_2240_233" x1="-1.35021" y1="1.50208" x2="40.2318" y2="14.6626" gradientUnits="userSpaceOnUse">
<stop offset="0.125302" stop-color="#155DFC"/>
<stop offset="0.195293" stop-color="#2D5DE2"/>
<stop offset="0.230288" stop-color="#395CD6"/>
<stop offset="0.374273" stop-color="#455CC9"/>
<stop offset="0.733203" stop-color="#D35A2F"/>
<stop offset="0.875" stop-color="#E25A20"/>
<stop offset="1" stop-color="#FF5900"/>
</linearGradient>
<linearGradient id="paint21_linear_2240_233" x1="-1.35021" y1="1.50208" x2="40.2318" y2="14.6626" gradientUnits="userSpaceOnUse">
<stop offset="0.125302" stop-color="#155DFC"/>
<stop offset="0.195293" stop-color="#2D5DE2"/>
<stop offset="0.230288" stop-color="#395CD6"/>
<stop offset="0.374273" stop-color="#455CC9"/>
<stop offset="0.733203" stop-color="#D35A2F"/>
<stop offset="0.875" stop-color="#E25A20"/>
<stop offset="1" stop-color="#FF5900"/>
</linearGradient>
<linearGradient id="paint22_linear_2240_233" x1="-1.35021" y1="1.50208" x2="40.2318" y2="14.6626" gradientUnits="userSpaceOnUse">
<stop offset="0.125302" stop-color="#155DFC"/>
<stop offset="0.195293" stop-color="#2D5DE2"/>
<stop offset="0.230288" stop-color="#395CD6"/>
<stop offset="0.374273" stop-color="#455CC9"/>
<stop offset="0.733203" stop-color="#D35A2F"/>
<stop offset="0.875" stop-color="#E25A20"/>
<stop offset="1" stop-color="#FF5900"/>
</linearGradient>
<linearGradient id="paint23_linear_2240_233" x1="-1.35021" y1="1.50208" x2="40.2318" y2="14.6626" gradientUnits="userSpaceOnUse">
<stop offset="0.125302" stop-color="#155DFC"/>
<stop offset="0.195293" stop-color="#2D5DE2"/>
<stop offset="0.230288" stop-color="#395CD6"/>
<stop offset="0.374273" stop-color="#455CC9"/>
<stop offset="0.733203" stop-color="#D35A2F"/>
<stop offset="0.875" stop-color="#E25A20"/>
<stop offset="1" stop-color="#FF5900"/>
</linearGradient>
</defs>
</svg>
