<svg width="237" height="31" viewBox="0 0 237 31" fill="none" xmlns="http://www.w3.org/2000/svg">
<path d="M66.1372 12.5845C65.9431 12.9737 65.7181 13.3467 65.4643 13.6997C64.975 14.3712 64.4045 14.9793 63.7662 15.5103C64.1354 16.0501 64.4475 16.6269 64.6977 17.2314C64.978 17.8932 65.1206 18.6053 65.1165 19.3243C65.1165 19.4482 65.1165 19.5698 65.0982 19.6914C65.0865 19.814 65.0682 19.9358 65.0432 20.0563L64.97 20.4969C64.7995 21.4126 64.4324 22.2802 63.8944 23.0395C63.3099 23.8907 62.6174 24.6621 61.8347 25.3343C61.0506 26.0185 60.1719 26.5851 59.2258 27.0164C58.3668 27.4251 57.4301 27.6435 56.4795 27.6566H38.0453L42.2402 3.80458H60.6652C61.4756 3.80094 62.2752 3.98883 62.9996 4.35303C63.7184 4.71147 64.3672 5.19649 64.9151 5.78499C65.4648 6.37176 65.9035 7.05363 66.2104 7.79751C66.5212 8.5226 66.6832 9.30308 66.6864 10.0923C66.6864 10.2392 66.6864 10.3837 66.6681 10.5306C66.6498 10.6775 66.6361 10.8243 66.6132 10.9712L66.5399 11.3728C66.4663 11.7944 66.3305 12.2028 66.1372 12.5845ZM48.005 20.4877H54.3443C55.0308 20.4877 55.4886 20.4189 55.7495 20.2858C55.8682 20.2291 55.9718 20.1448 56.0514 20.0398C56.1311 19.9348 56.1845 19.8122 56.2072 19.6822C56.2323 19.657 56.2438 19.5721 56.2438 19.4252C56.2507 19.318 56.22 19.2117 56.1568 19.125C56.0937 19.0381 56.0022 18.9763 55.8982 18.9502C55.473 18.8575 55.0376 18.8205 54.6029 18.8401H48.2613L48.005 20.4877ZM49.3553 12.6212H55.7037C56.4086 12.6212 56.8891 12.56 57.1455 12.4376C57.2646 12.3865 57.3691 12.3061 57.4491 12.2038C57.5291 12.1015 57.5821 11.9807 57.6032 11.8524L57.6398 11.6229C57.6451 11.5016 57.608 11.3823 57.5349 11.2855C57.4618 11.1887 57.3572 11.1205 57.2393 11.0928C56.8338 10.9927 56.4162 10.9502 55.9989 10.9666H49.6482L49.3553 12.6212Z" fill="url(#paint0_linear_2217_250)"/>
<path d="M66.1761 27.6566L70.3641 3.80453H79.0125L76.0923 20.4877H85.5051L84.7362 24.8134C84.5957 25.6112 84.1789 26.3337 83.5592 26.8539C82.9397 27.3739 82.157 27.6582 81.3491 27.6566H66.1761Z" fill="url(#paint1_linear_2217_250)"/>
<path d="M96.9707 17.0478C96.8987 17.4708 96.862 17.8991 96.8609 18.3283C96.8371 18.8827 96.9982 19.4293 97.3186 19.8818C97.6237 20.2857 98.2256 20.4877 99.1243 20.4877H101.935C102.435 20.504 102.932 20.41 103.392 20.2123C103.768 20.0399 104.099 19.7831 104.36 19.4619C104.622 19.1362 104.82 18.7641 104.944 18.365C105.081 17.9345 105.185 17.4942 105.255 17.0478L107.59 3.80453H116.272L113.279 20.8893C113.096 21.7504 112.729 22.5615 112.203 23.2667C111.625 24.0778 110.945 24.8099 110.178 25.4444C109.425 26.0738 108.598 26.6079 107.715 27.0347C106.986 27.4152 106.182 27.6277 105.361 27.6566H93.1397C92.449 27.6477 91.7716 27.4654 91.1693 27.1265C90.501 26.7648 89.8971 26.295 89.3819 25.7359C88.8448 25.1629 88.4015 24.5085 88.0683 23.7968C87.7372 23.1193 87.5628 22.3757 87.558 21.6213C87.558 21.4997 87.558 21.3758 87.574 21.2541C87.59 21.1325 87.606 21.0109 87.6289 20.8893L90.6223 3.80453H99.3051L96.9707 17.0478Z" fill="url(#paint2_linear_2217_250)"/>
<path d="M137.215 18.8767H124.808L124.554 20.4831H137.942L137.173 24.8088C137.033 25.6066 136.616 26.3291 135.996 26.8493C135.377 27.3693 134.594 27.6536 133.786 27.652H114.629L118.826 3.80453H140.863L139.586 10.9758H126.204L125.948 12.5821H138.354L137.215 18.8767Z" fill="url(#paint3_linear_2217_250)"/>
<path d="M147.868 27.6566H139.222L143.417 3.80453H161.906C162.595 3.80606 163.273 3.98208 163.876 4.31626C165.172 5.02401 166.188 6.15311 166.758 7.5175C167.047 8.19412 167.196 8.92244 167.197 9.65854C167.197 9.80312 167.197 9.94998 167.179 10.0968C167.16 10.2437 167.147 10.3883 167.124 10.5352L166.73 12.6693C166.583 13.5281 166.327 14.3642 165.966 15.1569C165.596 15.9671 165.111 16.7186 164.524 17.3874C163.901 18.0962 163.182 18.7141 162.389 19.2232C161.506 19.7833 160.548 20.2144 159.544 20.5037H169.248L168.479 24.8317C168.337 25.6291 167.92 26.3511 167.301 26.8706C166.681 27.3904 165.899 27.6743 165.092 27.6727H153.997C153.311 27.5875 152.671 27.2869 152.166 26.8144C151.583 26.2856 151.08 25.675 150.671 25.0015C150.233 24.2954 149.877 23.5407 149.612 22.7526C149.366 22.0468 149.194 21.3168 149.102 20.5749L147.868 27.6566ZM150.276 13.8649H155.239C155.876 13.8963 156.512 13.7834 157.1 13.5344C157.314 13.4286 157.501 13.2748 157.646 13.085C157.791 12.8952 157.891 12.6745 157.938 12.4398V12.2104C157.938 11.3796 157.208 10.965 155.75 10.9666H150.788L150.276 13.8649Z" fill="url(#paint4_linear_2217_250)"/>
<path d="M170.069 27.6566L174.264 12.3067H182.912L179.376 25.2424C178.987 26.6629 177.614 27.6566 176.042 27.6566H170.069Z" fill="url(#paint5_linear_2217_250)"/>
<path d="M185.936 3.80453H210.194L208.917 10.9758H201.102L198.683 24.8042C198.544 25.6041 198.128 26.3291 197.508 26.8511C196.888 27.373 196.103 27.6582 195.294 27.6566H189.536L192.453 10.9758H184.647L185.936 3.80453Z" fill="url(#paint6_linear_2217_250)"/>
<path d="M212.741 3.80453H237L235.723 10.9758H227.919L225.5 24.8042C225.361 25.6041 224.945 26.3291 224.325 26.8511C223.704 27.373 222.92 27.6582 222.111 27.6566H216.353L219.273 10.9758H211.464L212.741 3.80453Z" fill="url(#paint7_linear_2217_250)"/>
<path fill-rule="evenodd" clip-rule="evenodd" d="M25.5159 3.68262C24.8886 7.46987 23.8378 9.70915 22.0555 10.9149L22.6035 11.8749L24.8524 15.8275C27.3729 13.1289 28.3444 9.72063 26.8905 6.12171L25.5159 3.68262Z" fill="url(#paint8_linear_2217_250)"/>
<path fill-rule="evenodd" clip-rule="evenodd" d="M3.4221 8.53774L11.1897 8.19324L15.4947 1.26871H10.3223C9.48257 1.25586 8.655 1.47338 7.92709 1.89827C7.1992 2.32317 6.59804 2.93965 6.18718 3.68253L3.4221 8.53774Z" fill="url(#paint9_linear_2217_250)"/>
<path fill-rule="evenodd" clip-rule="evenodd" d="M15.1395 1.26862L11.3508 7.92903H20.3527L20.407 8.02549L22.0555 10.9149C23.9064 9.89213 25.06 7.48501 25.5159 3.69392C25.1065 2.94891 24.5061 2.33011 23.7781 1.90313C23.05 1.47615 22.2217 1.2569 21.3808 1.26862H15.1395Z" fill="url(#paint10_linear_2217_250)"/>
<path fill-rule="evenodd" clip-rule="evenodd" d="M9.09968 11.8633L11.3507 7.91065H3.78011L3.4221 8.53774L0.657243 13.3952C0.227085 14.1273 0 14.9636 0 15.8159C0 16.6681 0.227085 17.5045 0.657243 18.2366L4.80598 25.5148C4.06169 22.2152 4.74107 18.9799 6.84414 15.809L9.09968 11.8633Z" fill="url(#paint11_linear_2217_250)"/>
<path fill-rule="evenodd" clip-rule="evenodd" d="M6.18738 27.9496C7.09322 24.2749 7.96509 22.302 9.64769 20.7287L9.09966 19.7687L6.84864 15.8161C4.43685 18.7444 3.89108 22.1527 4.81051 25.522L6.18738 27.9496Z" fill="url(#paint12_linear_2217_250)"/>
<path fill-rule="evenodd" clip-rule="evenodd" d="M11.3507 23.7234L9.64771 20.7377C7.21553 21.4497 6.64259 24.1667 6.18741 27.9585C6.59737 28.7027 7.19814 29.3205 7.9261 29.7467C8.65407 30.1728 9.4821 30.3914 10.3226 30.3792H21.3806C22.221 30.3914 23.0491 30.1728 23.7769 29.7467C24.505 29.3205 25.1058 28.7027 25.5157 27.9585L28.2808 23.0872L31.0458 18.2297C31.4761 17.4976 31.7032 16.6612 31.7032 15.809C31.7032 14.9568 31.4761 14.1204 31.0458 13.3883L26.8971 6.11007C27.6415 9.4112 26.9621 12.6465 24.859 15.8159L20.3593 23.7234H11.3507Z" fill="url(#paint13_linear_2217_250)"/>
<path d="M18.8014 10.6875L16.5866 14.4932L10.3114 15.5565L12.5262 11.7486L18.8014 10.6875Z" fill="url(#paint14_linear_2217_250)"/>
<path d="M18.7083 20.5771L20.9231 16.7692L18.8014 10.6875L16.5866 14.4932L18.7083 20.5771Z" fill="url(#paint15_linear_2217_250)"/>
<path d="M18.7083 20.5771C18.7083 20.5771 17.0144 13.7581 18.7967 10.6851L20.9186 16.7667L18.7083 20.5771Z" fill="url(#paint16_linear_2217_250)"/>
<path d="M10.3137 15.5564C10.3137 15.5564 17.0144 13.7581 18.7967 10.6851L12.5262 11.7486L10.3137 15.5564Z" fill="url(#paint17_linear_2217_250)"/>
<path d="M15.9547 15.5839L14.7137 17.7176L15.9026 21.1259L17.1436 18.9922L15.9547 15.5839Z" fill="url(#paint18_linear_2217_250)"/>
<path d="M11.1991 18.3124L12.4379 16.1788L15.9547 15.5839L14.7137 17.7176L11.1991 18.3124Z" fill="url(#paint19_linear_2217_250)"/>
<path d="M11.1991 18.3124C11.1991 18.3124 14.9538 17.3065 15.9547 15.5839L12.4379 16.1788L11.1991 18.3124Z" fill="url(#paint20_linear_2217_250)"/>
<path d="M15.9026 21.1259C15.9026 21.1259 14.947 17.3065 15.9547 15.5839L17.1436 18.9922L15.9026 21.1259Z" fill="url(#paint21_linear_2217_250)"/>
<path fill-rule="evenodd" clip-rule="evenodd" d="M178.827 6.93168C178.398 7.33515 177.829 7.55574 177.24 7.54682C176.651 7.53787 176.089 7.30008 175.673 6.88379C175.256 6.46749 175.018 5.90541 175.008 5.31654C174.999 4.72769 175.219 4.1583 175.622 3.72897C175.267 3.3217 175.067 2.80269 175.055 2.2625C175.049 1.96354 175.103 1.66639 175.215 1.38896C175.326 1.11152 175.493 0.859548 175.705 0.648208C175.916 0.436868 176.168 0.270534 176.446 0.159226C176.723 0.0479183 177.021 -0.00606089 177.319 0.00053995L180.248 0.0558786C180.842 0.0688091 181.408 0.310544 181.828 0.730676C182.248 1.15081 182.49 1.71691 182.503 2.31091L182.558 5.23925C182.565 5.53821 182.511 5.83543 182.399 6.11297C182.288 6.39052 182.122 6.64266 181.911 6.85421C181.699 7.06576 181.447 7.23236 181.17 7.34396C180.892 7.45553 180.595 7.50981 180.296 7.50352C179.755 7.49136 179.235 7.28892 178.827 6.93168ZM178.869 6.02552L178.47 6.43133C178.317 6.58547 178.134 6.70784 177.933 6.79149C177.733 6.87512 177.517 6.9184 177.3 6.91882C177.082 6.91926 176.867 6.87683 176.666 6.79398C176.464 6.71114 176.282 6.58946 176.127 6.43594C175.973 6.28242 175.851 6.10006 175.767 5.89925C175.684 5.69844 175.64 5.48311 175.64 5.26558C175.639 5.04803 175.682 4.83255 175.765 4.6314C175.848 4.43027 175.969 4.24742 176.123 4.09328L176.526 3.68516C176.272 3.54065 176.059 3.33251 175.909 3.08109C175.759 2.82969 175.677 2.54364 175.671 2.25097C175.667 2.03455 175.706 1.81953 175.787 1.61869C175.868 1.41786 175.988 1.23532 176.141 1.08194C176.294 0.928558 176.476 0.807463 176.676 0.725864C176.877 0.644265 177.092 0.603829 177.308 0.606958L180.236 0.662296C180.672 0.672829 181.087 0.850634 181.395 1.15886C181.704 1.46708 181.881 1.88208 181.892 2.31783L181.945 5.24616C181.95 5.46293 181.912 5.67852 181.831 5.87986C181.751 6.08118 181.63 6.26407 181.477 6.41738C181.323 6.57069 181.14 6.69126 180.939 6.77173C180.738 6.85223 180.522 6.89096 180.305 6.88557C180.012 6.87842 179.726 6.79546 179.474 6.64473C179.222 6.49403 179.014 6.2807 178.869 6.02552Z" fill="url(#paint22_linear_2217_250)"/>
<path d="M177.334 3.29548C177.056 3.28787 176.792 3.1741 176.596 2.97763C176.4 2.78113 176.287 2.51691 176.28 2.23943C176.276 2.10505 176.3 1.97136 176.35 1.84654C176.4 1.72171 176.475 1.60837 176.57 1.51342C176.665 1.41847 176.779 1.34392 176.904 1.29431C177.029 1.2447 177.162 1.22108 177.297 1.22489L180.225 1.27792C180.502 1.28551 180.766 1.39928 180.963 1.59577C181.159 1.79225 181.272 2.05648 181.279 2.33397L181.334 5.2623C181.338 5.39678 181.314 5.53056 181.264 5.65551C181.214 5.78046 181.139 5.89395 181.044 5.98908C180.949 6.0842 180.835 6.15897 180.71 6.20885C180.586 6.25872 180.452 6.28263 180.317 6.27915C180.039 6.2715 179.774 6.15711 179.578 5.95962C179.382 5.76215 179.269 5.49678 179.264 5.21849V4.78732L179.247 4.77117L178.041 5.99554C177.842 6.1691 177.585 6.2608 177.321 6.2522C177.057 6.2436 176.806 6.13529 176.619 5.94913C176.431 5.76296 176.322 5.51273 176.311 5.24882C176.301 4.98492 176.391 4.7269 176.563 4.52676L177.767 3.3047H177.34L177.334 3.29548Z" fill="url(#paint23_linear_2217_250)"/>
<defs>
<linearGradient id="paint0_linear_2217_250" x1="-10" y1="2.89605e-07" x2="46.4056" y2="126.212" gradientUnits="userSpaceOnUse">
<stop offset="0.125302" stop-color="#155DFC"/>
<stop offset="0.195293" stop-color="#2D5DE2"/>
<stop offset="0.230288" stop-color="#395CD6"/>
<stop offset="0.374273" stop-color="#455CC9"/>
<stop offset="0.733203" stop-color="#D35A2F"/>
<stop offset="0.875" stop-color="#E25A20"/>
<stop offset="1" stop-color="#FF5900"/>
</linearGradient>
<linearGradient id="paint1_linear_2217_250" x1="-10" y1="2.89605e-07" x2="46.4056" y2="126.212" gradientUnits="userSpaceOnUse">
<stop offset="0.125302" stop-color="#155DFC"/>
<stop offset="0.195293" stop-color="#2D5DE2"/>
<stop offset="0.230288" stop-color="#395CD6"/>
<stop offset="0.374273" stop-color="#455CC9"/>
<stop offset="0.733203" stop-color="#D35A2F"/>
<stop offset="0.875" stop-color="#E25A20"/>
<stop offset="1" stop-color="#FF5900"/>
</linearGradient>
<linearGradient id="paint2_linear_2217_250" x1="-10" y1="2.89605e-07" x2="46.4056" y2="126.212" gradientUnits="userSpaceOnUse">
<stop offset="0.125302" stop-color="#155DFC"/>
<stop offset="0.195293" stop-color="#2D5DE2"/>
<stop offset="0.230288" stop-color="#395CD6"/>
<stop offset="0.374273" stop-color="#455CC9"/>
<stop offset="0.733203" stop-color="#D35A2F"/>
<stop offset="0.875" stop-color="#E25A20"/>
<stop offset="1" stop-color="#FF5900"/>
</linearGradient>
<linearGradient id="paint3_linear_2217_250" x1="-10" y1="2.89605e-07" x2="46.4056" y2="126.212" gradientUnits="userSpaceOnUse">
<stop offset="0.125302" stop-color="#155DFC"/>
<stop offset="0.195293" stop-color="#2D5DE2"/>
<stop offset="0.230288" stop-color="#395CD6"/>
<stop offset="0.374273" stop-color="#455CC9"/>
<stop offset="0.733203" stop-color="#D35A2F"/>
<stop offset="0.875" stop-color="#E25A20"/>
<stop offset="1" stop-color="#FF5900"/>
</linearGradient>
<linearGradient id="paint4_linear_2217_250" x1="-10" y1="2.89605e-07" x2="46.4056" y2="126.212" gradientUnits="userSpaceOnUse">
<stop offset="0.125302" stop-color="#155DFC"/>
<stop offset="0.195293" stop-color="#2D5DE2"/>
<stop offset="0.230288" stop-color="#395CD6"/>
<stop offset="0.374273" stop-color="#455CC9"/>
<stop offset="0.733203" stop-color="#D35A2F"/>
<stop offset="0.875" stop-color="#E25A20"/>
<stop offset="1" stop-color="#FF5900"/>
</linearGradient>
<linearGradient id="paint5_linear_2217_250" x1="-10" y1="2.89605e-07" x2="46.4056" y2="126.212" gradientUnits="userSpaceOnUse">
<stop offset="0.125302" stop-color="#155DFC"/>
<stop offset="0.195293" stop-color="#2D5DE2"/>
<stop offset="0.230288" stop-color="#395CD6"/>
<stop offset="0.374273" stop-color="#455CC9"/>
<stop offset="0.733203" stop-color="#D35A2F"/>
<stop offset="0.875" stop-color="#E25A20"/>
<stop offset="1" stop-color="#FF5900"/>
</linearGradient>
<linearGradient id="paint6_linear_2217_250" x1="-10" y1="2.89605e-07" x2="46.4056" y2="126.212" gradientUnits="userSpaceOnUse">
<stop offset="0.125302" stop-color="#155DFC"/>
<stop offset="0.195293" stop-color="#2D5DE2"/>
<stop offset="0.230288" stop-color="#395CD6"/>
<stop offset="0.374273" stop-color="#455CC9"/>
<stop offset="0.733203" stop-color="#D35A2F"/>
<stop offset="0.875" stop-color="#E25A20"/>
<stop offset="1" stop-color="#FF5900"/>
</linearGradient>
<linearGradient id="paint7_linear_2217_250" x1="-10" y1="2.89605e-07" x2="46.4056" y2="126.212" gradientUnits="userSpaceOnUse">
<stop offset="0.125302" stop-color="#155DFC"/>
<stop offset="0.195293" stop-color="#2D5DE2"/>
<stop offset="0.230288" stop-color="#395CD6"/>
<stop offset="0.374273" stop-color="#455CC9"/>
<stop offset="0.733203" stop-color="#D35A2F"/>
<stop offset="0.875" stop-color="#E25A20"/>
<stop offset="1" stop-color="#FF5900"/>
</linearGradient>
<linearGradient id="paint8_linear_2217_250" x1="-10" y1="2.89605e-07" x2="46.4056" y2="126.212" gradientUnits="userSpaceOnUse">
<stop offset="0.125302" stop-color="#155DFC"/>
<stop offset="0.195293" stop-color="#2D5DE2"/>
<stop offset="0.230288" stop-color="#395CD6"/>
<stop offset="0.374273" stop-color="#455CC9"/>
<stop offset="0.733203" stop-color="#D35A2F"/>
<stop offset="0.875" stop-color="#E25A20"/>
<stop offset="1" stop-color="#FF5900"/>
</linearGradient>
<linearGradient id="paint9_linear_2217_250" x1="-10" y1="2.89605e-07" x2="46.4056" y2="126.212" gradientUnits="userSpaceOnUse">
<stop offset="0.125302" stop-color="#155DFC"/>
<stop offset="0.195293" stop-color="#2D5DE2"/>
<stop offset="0.230288" stop-color="#395CD6"/>
<stop offset="0.374273" stop-color="#455CC9"/>
<stop offset="0.733203" stop-color="#D35A2F"/>
<stop offset="0.875" stop-color="#E25A20"/>
<stop offset="1" stop-color="#FF5900"/>
</linearGradient>
<linearGradient id="paint10_linear_2217_250" x1="-10" y1="2.89605e-07" x2="46.4056" y2="126.212" gradientUnits="userSpaceOnUse">
<stop offset="0.125302" stop-color="#155DFC"/>
<stop offset="0.195293" stop-color="#2D5DE2"/>
<stop offset="0.230288" stop-color="#395CD6"/>
<stop offset="0.374273" stop-color="#455CC9"/>
<stop offset="0.733203" stop-color="#D35A2F"/>
<stop offset="0.875" stop-color="#E25A20"/>
<stop offset="1" stop-color="#FF5900"/>
</linearGradient>
<linearGradient id="paint11_linear_2217_250" x1="-10" y1="2.89605e-07" x2="46.4056" y2="126.212" gradientUnits="userSpaceOnUse">
<stop offset="0.125302" stop-color="#155DFC"/>
<stop offset="0.195293" stop-color="#2D5DE2"/>
<stop offset="0.230288" stop-color="#395CD6"/>
<stop offset="0.374273" stop-color="#455CC9"/>
<stop offset="0.733203" stop-color="#D35A2F"/>
<stop offset="0.875" stop-color="#E25A20"/>
<stop offset="1" stop-color="#FF5900"/>
</linearGradient>
<linearGradient id="paint12_linear_2217_250" x1="-10" y1="2.89605e-07" x2="46.4056" y2="126.212" gradientUnits="userSpaceOnUse">
<stop offset="0.125302" stop-color="#155DFC"/>
<stop offset="0.195293" stop-color="#2D5DE2"/>
<stop offset="0.230288" stop-color="#395CD6"/>
<stop offset="0.374273" stop-color="#455CC9"/>
<stop offset="0.733203" stop-color="#D35A2F"/>
<stop offset="0.875" stop-color="#E25A20"/>
<stop offset="1" stop-color="#FF5900"/>
</linearGradient>
<linearGradient id="paint13_linear_2217_250" x1="-10" y1="2.89605e-07" x2="46.4056" y2="126.212" gradientUnits="userSpaceOnUse">
<stop offset="0.125302" stop-color="#155DFC"/>
<stop offset="0.195293" stop-color="#2D5DE2"/>
<stop offset="0.230288" stop-color="#395CD6"/>
<stop offset="0.374273" stop-color="#455CC9"/>
<stop offset="0.733203" stop-color="#D35A2F"/>
<stop offset="0.875" stop-color="#E25A20"/>
<stop offset="1" stop-color="#FF5900"/>
</linearGradient>
<linearGradient id="paint14_linear_2217_250" x1="-10" y1="2.89605e-07" x2="46.4056" y2="126.212" gradientUnits="userSpaceOnUse">
<stop offset="0.125302" stop-color="#155DFC"/>
<stop offset="0.195293" stop-color="#2D5DE2"/>
<stop offset="0.230288" stop-color="#395CD6"/>
<stop offset="0.374273" stop-color="#455CC9"/>
<stop offset="0.733203" stop-color="#D35A2F"/>
<stop offset="0.875" stop-color="#E25A20"/>
<stop offset="1" stop-color="#FF5900"/>
</linearGradient>
<linearGradient id="paint15_linear_2217_250" x1="-10" y1="2.89605e-07" x2="46.4056" y2="126.212" gradientUnits="userSpaceOnUse">
<stop offset="0.125302" stop-color="#155DFC"/>
<stop offset="0.195293" stop-color="#2D5DE2"/>
<stop offset="0.230288" stop-color="#395CD6"/>
<stop offset="0.374273" stop-color="#455CC9"/>
<stop offset="0.733203" stop-color="#D35A2F"/>
<stop offset="0.875" stop-color="#E25A20"/>
<stop offset="1" stop-color="#FF5900"/>
</linearGradient>
<linearGradient id="paint16_linear_2217_250" x1="-10" y1="2.89605e-07" x2="46.4056" y2="126.212" gradientUnits="userSpaceOnUse">
<stop offset="0.125302" stop-color="#155DFC"/>
<stop offset="0.195293" stop-color="#2D5DE2"/>
<stop offset="0.230288" stop-color="#395CD6"/>
<stop offset="0.374273" stop-color="#455CC9"/>
<stop offset="0.733203" stop-color="#D35A2F"/>
<stop offset="0.875" stop-color="#E25A20"/>
<stop offset="1" stop-color="#FF5900"/>
</linearGradient>
<linearGradient id="paint17_linear_2217_250" x1="-10" y1="2.89605e-07" x2="46.4056" y2="126.212" gradientUnits="userSpaceOnUse">
<stop offset="0.125302" stop-color="#155DFC"/>
<stop offset="0.195293" stop-color="#2D5DE2"/>
<stop offset="0.230288" stop-color="#395CD6"/>
<stop offset="0.374273" stop-color="#455CC9"/>
<stop offset="0.733203" stop-color="#D35A2F"/>
<stop offset="0.875" stop-color="#E25A20"/>
<stop offset="1" stop-color="#FF5900"/>
</linearGradient>
<linearGradient id="paint18_linear_2217_250" x1="-10" y1="2.89605e-07" x2="46.4056" y2="126.212" gradientUnits="userSpaceOnUse">
<stop offset="0.125302" stop-color="#155DFC"/>
<stop offset="0.195293" stop-color="#2D5DE2"/>
<stop offset="0.230288" stop-color="#395CD6"/>
<stop offset="0.374273" stop-color="#455CC9"/>
<stop offset="0.733203" stop-color="#D35A2F"/>
<stop offset="0.875" stop-color="#E25A20"/>
<stop offset="1" stop-color="#FF5900"/>
</linearGradient>
<linearGradient id="paint19_linear_2217_250" x1="-10" y1="2.89605e-07" x2="46.4056" y2="126.212" gradientUnits="userSpaceOnUse">
<stop offset="0.125302" stop-color="#155DFC"/>
<stop offset="0.195293" stop-color="#2D5DE2"/>
<stop offset="0.230288" stop-color="#395CD6"/>
<stop offset="0.374273" stop-color="#455CC9"/>
<stop offset="0.733203" stop-color="#D35A2F"/>
<stop offset="0.875" stop-color="#E25A20"/>
<stop offset="1" stop-color="#FF5900"/>
</linearGradient>
<linearGradient id="paint20_linear_2217_250" x1="-10" y1="2.89605e-07" x2="46.4056" y2="126.212" gradientUnits="userSpaceOnUse">
<stop offset="0.125302" stop-color="#155DFC"/>
<stop offset="0.195293" stop-color="#2D5DE2"/>
<stop offset="0.230288" stop-color="#395CD6"/>
<stop offset="0.374273" stop-color="#455CC9"/>
<stop offset="0.733203" stop-color="#D35A2F"/>
<stop offset="0.875" stop-color="#E25A20"/>
<stop offset="1" stop-color="#FF5900"/>
</linearGradient>
<linearGradient id="paint21_linear_2217_250" x1="-10" y1="2.89605e-07" x2="46.4056" y2="126.212" gradientUnits="userSpaceOnUse">
<stop offset="0.125302" stop-color="#155DFC"/>
<stop offset="0.195293" stop-color="#2D5DE2"/>
<stop offset="0.230288" stop-color="#395CD6"/>
<stop offset="0.374273" stop-color="#455CC9"/>
<stop offset="0.733203" stop-color="#D35A2F"/>
<stop offset="0.875" stop-color="#E25A20"/>
<stop offset="1" stop-color="#FF5900"/>
</linearGradient>
<linearGradient id="paint22_linear_2217_250" x1="-10" y1="2.89605e-07" x2="46.4056" y2="126.212" gradientUnits="userSpaceOnUse">
<stop offset="0.125302" stop-color="#155DFC"/>
<stop offset="0.195293" stop-color="#2D5DE2"/>
<stop offset="0.230288" stop-color="#395CD6"/>
<stop offset="0.374273" stop-color="#455CC9"/>
<stop offset="0.733203" stop-color="#D35A2F"/>
<stop offset="0.875" stop-color="#E25A20"/>
<stop offset="1" stop-color="#FF5900"/>
</linearGradient>
<linearGradient id="paint23_linear_2217_250" x1="-10" y1="2.89605e-07" x2="46.4056" y2="126.212" gradientUnits="userSpaceOnUse">
<stop offset="0.125302" stop-color="#155DFC"/>
<stop offset="0.195293" stop-color="#2D5DE2"/>
<stop offset="0.230288" stop-color="#395CD6"/>
<stop offset="0.374273" stop-color="#455CC9"/>
<stop offset="0.733203" stop-color="#D35A2F"/>
<stop offset="0.875" stop-color="#E25A20"/>
<stop offset="1" stop-color="#FF5900"/>
</linearGradient>
</defs>
</svg>
